<mxfile host="app.diagrams.net" modified="2024-03-20T00:33:38.407Z" agent="Mozilla/5.0 (Windows NT 10.0; Win64; x64) AppleWebKit/537.36 (KHTML, like Gecko) Chrome/122.0.0.0 Safari/537.36" etag="MOtRJdtfjsKkU2xPybO9" version="24.0.7" type="github">
  <diagram name="Page-1" id="5-TZJ4pdnrW3i3_6qMDU">
    <mxGraphModel dx="1434" dy="876" grid="1" gridSize="10" guides="1" tooltips="1" connect="1" arrows="1" fold="1" page="1" pageScale="1" pageWidth="827" pageHeight="1169" math="0" shadow="0">
      <root>
        <mxCell id="0" />
        <mxCell id="1" parent="0" />
        <mxCell id="3EEp96FBbNTtAHvITh3q-1" value="" style="shape=actor;whiteSpace=wrap;html=1;" vertex="1" parent="1">
          <mxGeometry x="40" y="340" width="40" height="60" as="geometry" />
        </mxCell>
        <mxCell id="3EEp96FBbNTtAHvITh3q-2" value="" style="shape=flexArrow;endArrow=classic;html=1;rounded=0;" edge="1" parent="1">
          <mxGeometry width="50" height="50" relative="1" as="geometry">
            <mxPoint x="100" y="370" as="sourcePoint" />
            <mxPoint x="180" y="370" as="targetPoint" />
          </mxGeometry>
        </mxCell>
        <mxCell id="3EEp96FBbNTtAHvITh3q-3" value="" style="verticalLabelPosition=bottom;html=1;verticalAlign=top;align=center;strokeColor=none;fillColor=#00BEF2;shape=mxgraph.azure.storage;pointerEvents=1;" vertex="1" parent="1">
          <mxGeometry x="390" y="340" width="80" height="70" as="geometry" />
        </mxCell>
        <mxCell id="3EEp96FBbNTtAHvITh3q-4" value="" style="shape=flexArrow;endArrow=classic;html=1;rounded=0;" edge="1" parent="1">
          <mxGeometry width="50" height="50" relative="1" as="geometry">
            <mxPoint x="490" y="370" as="sourcePoint" />
            <mxPoint x="600" y="369.5" as="targetPoint" />
            <Array as="points" />
          </mxGeometry>
        </mxCell>
        <mxCell id="3EEp96FBbNTtAHvITh3q-5" value="" style="endArrow=classic;html=1;rounded=0;" edge="1" parent="1">
          <mxGeometry width="50" height="50" relative="1" as="geometry">
            <mxPoint x="422" y="210" as="sourcePoint" />
            <mxPoint x="422" y="320" as="targetPoint" />
          </mxGeometry>
        </mxCell>
        <mxCell id="3EEp96FBbNTtAHvITh3q-6" value="" style="shape=image;html=1;verticalAlign=top;verticalLabelPosition=bottom;labelBackgroundColor=#ffffff;imageAspect=0;aspect=fixed;image=https://cdn1.iconfinder.com/data/icons/bootstrap-vol-3/16/filetype-html-128.png" vertex="1" parent="1">
          <mxGeometry x="383" y="100" width="78" height="78" as="geometry" />
        </mxCell>
        <mxCell id="3EEp96FBbNTtAHvITh3q-7" value="" style="shape=image;html=1;verticalAlign=top;verticalLabelPosition=bottom;labelBackgroundColor=#ffffff;imageAspect=0;aspect=fixed;image=https://cdn2.iconfinder.com/data/icons/circle-icons-1/64/browser-128.png" vertex="1" parent="1">
          <mxGeometry x="670" y="326" width="84" height="84" as="geometry" />
        </mxCell>
        <mxCell id="3EEp96FBbNTtAHvITh3q-8" value="USER" style="text;html=1;align=center;verticalAlign=middle;resizable=0;points=[];autosize=1;strokeColor=none;fillColor=none;" vertex="1" parent="1">
          <mxGeometry x="40" y="410" width="60" height="30" as="geometry" />
        </mxCell>
        <mxCell id="3EEp96FBbNTtAHvITh3q-9" value="AZURE BLOB STORAGE" style="text;html=1;align=center;verticalAlign=middle;resizable=0;points=[];autosize=1;strokeColor=none;fillColor=none;" vertex="1" parent="1">
          <mxGeometry x="350" y="420" width="160" height="30" as="geometry" />
        </mxCell>
        <mxCell id="3EEp96FBbNTtAHvITh3q-10" value="Static Webpage Hosted in Azure" style="text;html=1;align=center;verticalAlign=middle;resizable=0;points=[];autosize=1;strokeColor=none;fillColor=none;" vertex="1" parent="1">
          <mxGeometry x="610" y="420" width="200" height="30" as="geometry" />
        </mxCell>
        <mxCell id="3EEp96FBbNTtAHvITh3q-11" value="" style="verticalLabelPosition=bottom;html=1;verticalAlign=top;align=center;strokeColor=none;fillColor=#00BEF2;shape=mxgraph.azure.azure_website;pointerEvents=1;" vertex="1" parent="1">
          <mxGeometry x="200" y="340" width="60" height="55" as="geometry" />
        </mxCell>
        <mxCell id="3EEp96FBbNTtAHvITh3q-12" value="" style="shape=flexArrow;endArrow=classic;html=1;rounded=0;" edge="1" parent="1">
          <mxGeometry width="50" height="50" relative="1" as="geometry">
            <mxPoint x="280" y="369.5" as="sourcePoint" />
            <mxPoint x="360" y="369.5" as="targetPoint" />
          </mxGeometry>
        </mxCell>
        <mxCell id="3EEp96FBbNTtAHvITh3q-13" value="Domain" style="text;html=1;align=center;verticalAlign=middle;resizable=0;points=[];autosize=1;strokeColor=none;fillColor=none;" vertex="1" parent="1">
          <mxGeometry x="200" y="410" width="60" height="30" as="geometry" />
        </mxCell>
      </root>
    </mxGraphModel>
  </diagram>
</mxfile>
